<?xml version="1.0" encoding="UTF-8"?><svg id="uuid-4e20f572-2247-4c07-8099-f33024a6495d" xmlns="http://www.w3.org/2000/svg" viewBox="0 0 565 177"><path d="M138.84,116.65c2.09-.13,1.92,1.59,2.89,2.15,2.72,1.57,5.76,.08,5.94-3.04,.1-1.81-.11-3.65,.09-5.45,.31-2.83-.33-4.49-3.65-3.94-1.84,.31-2.97-.62-3.87-2.87,1.92,.69,3.22,1.24,4.56,1.63,2.42,.71,4.09-.07,3.89-2.76-.43-5.85,.4-11.91,1.57-17.26,1.35-6.19,4.29-12.66,8.39-18.13,3.29-4.39,6.71-8.25,12.53-9.57,2.89-.66,5.44-.5,7.37,1.19,2.23,1.95,1.42,4.99,.69,7.46-2.16,7.3-13.06,16.04-20.74,16.42-3.01,.15-4.44,.95-4.84,4.03-.69,5.32-1.64,10.61-2.66,15.88-.5,2.61,1.12,2.08,2.6,2.19,4.15,.29,7.81-1.86,12.98-2.69-4.4,3.39-8.47,4.26-12.58,4.47-2.58,.13-3.43,.89-3.37,3.43,.04,1.77-.65,3.54-.87,5.33-.26,2.13,.83,4.75-2.81,5.28-4.01,.58-6.03-.11-8.11-3.73Zm34.78-56.99c-1.8,.05-3.22,.01-4.6,.84-6.9,4.1-10.51,10.6-13.1,17.79-.8,2.23,1.04,2.34,2.6,2.22,6.81-.51,17.03-9.11,18.82-15.78,.95-3.53,.01-5.54-3.73-5.07Z"/><path d="M319.63,100.14c-10.29-.36-8.72,6.39-9.11,11.74-.19,2.64-.35,5.22-1.03,7.79-.58,2.23-1.67,2.99-4.02,2.28,5.34-5.59,2.39-12.2,2.76-18.26,.13-2.17-2.37-1.18-3.65-1.2-7.56-.1-15.12-.05-23.06-.05,1.07,3.62-2.43,8.4,2.69,11.71,.88,.57-.06,1.87-.7,2.59-.61,.71-1.23,1.79-2.4,1.35-1.2-.45-1.63-1.57-1.58-2.8,.23-5.46-.43-10.85-1.05-16.25-.46-4.04,.81-8.13-1.77-12.17-1.27-1.98-.63-5.46,.69-8.13,.49-1-.58-3.16,1.66-2.75,1.49,.27,1.39,1.97,1.45,3.33,.27,5.93,.87,11.87,.85,17.8,0,2.75,1.27,3.49,3.36,3.5,7.14,.03,14.28-.15,21.43-.17,2.65,0,2.2-1.83,2.29-3.44,.42-6.89-.95-13.86,.95-20.7,.32-1.17-.24-3.14,1.91-2.48,1.88,.58,.45,2.05,.4,3.23-.26,6.78-.25,13.56-.39,20.35-.04,1.9,1,1.99,2.52,2.05,1.46,.05,2.65-1.71,5.79,.68Z"/><path d="M106.7,120.73c-2.15-.7-2.53-1.78-3.03-2.84-.54-1.13-.47-.93,.62-2.14,1.22-1.34,.74-3.29,.43-4.76-3-14.03-1.48-28.27-2.04-42.64-2.09,.94-2.72,2.87-3.49,4.5-3.72,7.85-7.37,15.73-10.85,23.68-.58,1.33-2.19,3.03-.82,4.42,1.02,1.03,2.73,.34,4.22-.17,2.41-.84,4.95-1.3,8.72-2.24-4.15,4.06-8.55,3.95-12.39,4.63-2.45,.44-3.23,1.48-3.93,3.36-2.1,5.67-4.14,11.38-6.45,16.97-.68,1.65-1.13,3.69-3.03,4.85-1.73-2.32-.58-4.38,.32-6.12,3.49-6.79,6.49-13.6,8-21.25,.56-2.82,3.42-5.87,4.95-9.02,4.02-8.27,7.29-16.88,12.05-24.81,1.18-1.96,3.04-3.27,4.5-2.82,1.9,.59,1.26,3.07,1.06,4.88-1.36,12.69-.96,25.3,1.06,37.93,.68,4.29,.11,8.79,.11,13.6Z"/><path d="M501.24,121.34c-11.36,2.78-21.88,7.38-33.45,5.74-6.73-.95-10.17-6.85-9.23-13.87,.72-5.36,1.06-10.77,1.55-16.16,.24-2.59,0-5.37-2.68-6.33-3.09-1.11-5.96,.36-7.8,2.94-3.49,4.87-4.92,10.61-6.45,16.3-.59,2.2-.21,4.99-3.12,6.47-2.11-4.77-1.92-9.61-1.85-14.45,.05-3.1-.01-3.1-2.81-5.08-.55-.39-1.04-.89-.78-1.65,.45-1.31,1.26-2.36,2.65-2.69,.86-.21,1.46,.22,1.95,1.09,1.23,2.16,.91,4.48,1.05,6.77,.12,2-.59,4.14,.96,6.67,1.73-4.33,3.04-8.11,4.73-11.72,1.75-3.72,4.42-6.56,8.91-6.9,4.66-.35,7.06,1.88,7.33,6.51,.3,5.14-.4,10.19-1,15.25-1.89,16.05,5.46,15.92,18.03,14.63,6.28-.65,12.4-2.84,18.6-4.31,.94-.22,1.9-.45,3.4,.8Z"/><path d="M409.19,106.15c-4.14,3.45-7.19,6.85-11.65,7.97-2.02,.51-4.25,.93-6.01-1.02-1.91-2.11-.34-4.06,.44-5.8,2.72-6.03,15.41-12.67,22.04-11.92,2.08,.24,3.04,1.01,1.52,2.68-4.61,5.08-4.28,11.26-4.28,17.4,0,.58-.2,1.46,.73,1.6,1.46,.22,1.87-.87,2.37-1.96,3-6.45,8.33-11.79,9.3-19.23,.08-.63,.52-1.21,1.6-1.49,.83,7.53,1.44,14.71-1.09,21.89v-12.46c-3.34,1.84-4.1,4.63-5.55,6.82-1.17,1.77-1.9,3.84-3.05,5.62-1.06,1.63-2.28,3.67-4.67,2.81-2.15-.77-1.65-2.98-1.68-4.75-.05-2.43-.01-4.86-.01-8.17Zm1.78-8.48c-6.41,1.92-12.59,4.11-16.75,9.76-.86,1.17-1.76,2.79-.86,4.11,1.08,1.58,3.22,1.16,4.54,.55,6.29-2.89,10.56-7.8,13.07-14.41Z"/><path d="M192.5,121.28c1.3-4.21,4.09-6.32,6.73-8.48,3.6-2.94,6.95-6.09,9.74-9.82,1.12-1.5,2.43-3.1,1.45-4.92-.94-1.74-2.98-.88-4.56-.9-3.97-.06-7.95-.02-11.97-.02,5.15-2.35,10.67-1.62,16.03-1.88,3.15-.15,4.06,4.06,1.71,7.6-2.59,3.9-5.98,7.11-9.57,10.02-2.2,1.78-4.14,3.73-6.82,6.59,10.22,.15,19.07-2.85,28.24-3.73-9.82,3.36-19.78,5.99-30.98,5.55Z"/><path d="M137.97,107.39c-1.28,3.34-3.07,4.76-5.54,3.75-2.02-.82-1.63-2.89-.98-4.75,.58-1.68,.8-3.48,1.35-5.17,.55-1.7,1.31-3.33,2.29-5.74-5.45,1.09-10.34,1.9-15.13,3.1-2.63,.66-3.14,3.04-3.12,5.49,.03,4.5,0,9-.71,13.5-2.02-3.82-.97-7.85-1.34-11.75-.15-1.53,.5-3.41-2.06-3.71-.95-.11-2.07-.74-1.76-1.95,.24-.95,1.43-1.22,2.16-1.8,5.19-4.12,11.77-1.77,17.36-3.9,.75-.28,1.67-.13,2.39-.45,1.32-.57,2.73-.97,3.55,.37,.67,1.09,.58,2.56-.03,3.83-1.05,2.19-2.45,4.21-2.76,6.74-.17,1.4-1.68,2.94-.36,4.14,1.43,1.3,2.72-.77,4.7-1.7Z"/><path d="M370.57,115.25c1.19,5.63,4.36,6.56,8.59,6.1,4.14-.45,4.93-1.77,3.43-5.8-1.8-4.85-6.3-6.59-10.1-9.05-5.69-3.67-5.87-5.88-.26-9.49,4.32-2.78,6.27-3.07,14.74-2.01-4.46,.56-9,.7-13.04,3.06-4.53,2.65-4.68,4.52-.22,7.09,3.69,2.13,7.7,3.81,9.8,7.89,1.58,3.08,3.79,6.31-.01,9.17-3.44,2.58-10.96,1.13-12.9-2.35-.46-.82-1.32-1.91-.02-4.6Z"/><path d="M361.51,100.01c-3.41-3.24-6.21-2.92-9.29-1.78-2.15,.79-4.21,2.02-4.57,4.03-.39,2.12,2.3,2.39,3.78,3.27,2.85,1.69,5.53,3.56,7.67,6.11,1.65,1.96,2.89,4.31,1.97,6.8-.89,2.41-2.89,4.28-5.74,3.85-3.89-.58-8.77,1.97-11.36-3.22,3.87,2.89,7.98,2.96,12.27,1.24,3.09-1.23,3.91-3.25,2.1-6.16-2.18-3.51-5.69-5.38-9.08-7.41-5.01-3.01-5.08-5.98-.25-9.27,4.81-3.28,10.44-2.64,12.5,2.55Z"/><path d="M183.76,100.47v11.78c-.21,.06-.41,.11-.62,.17-.53-1.5-1.06-3-1.72-4.89-2.32,2.87-4.34,5.87-7.75,7.25-2.38,.96-5.06,1.39-7.07-.28-2.16-1.8-.78-4.23,.1-6.33,2-4.78,5.93-7.29,10.69-8.68,1.21-.35,2.39,.15,2.91,1.32,.2,.44-.14,1.31-.5,1.77-1.27,1.62-1.58,.22-2.36-.66-1.07-1.2-2.38,.1-3.04,.65-1.89,1.56-3.55,3.42-5.11,5.32-1.22,1.49-2.9,3.63-.84,5.06,1.52,1.06,4.11,1.01,5.94-.74,2.26-2.17,4.59-4.23,6.05-7.09,.78-1.52,1.01-3.45,3.32-4.65Z"/><path d="M337.66,96.68c.21,5.5,1.65,11.07-.13,16.61-.87,2.71-2.02,5.12-4.93,5.52-2.91,.4-5.39-1.18-7.34-3.31-3.36-3.68-3.67-8.61-5.18-13.04-.35-1.03,.31-1.69,1.1-1.78,1.53-.18,2.03,1.11,2.01,2.24-.06,3.59,1.2,6.69,2.82,9.81,1.41,2.73,3.56,3.83,6.39,3.74,3.02-.09,3.04-2.93,3.38-4.75,.91-4.96,1.3-10.02,1.89-15.04Z"/></svg>